<?xml version="1.0" encoding="UTF-8" standalone="no"?><!DOCTYPE svg PUBLIC "-//W3C//DTD SVG 1.1//EN" "http://www.w3.org/Graphics/SVG/1.1/DTD/svg11.dtd"><svg width="6363px" height="2935px" version="1.1" xmlns="http://www.w3.org/2000/svg" xmlns:xlink="http://www.w3.org/1999/xlink" xml:space="preserve" xmlns:serif="http://www.serif.com/" style="fill-rule:evenodd;clip-rule:evenodd;stroke-linejoin:round;stroke-miterlimit:2;"><g id="Logo"><g id="Text"><g id="Curves"><g id="Socks"><path id="s" d="M2879.12,876.377c-60.297,0 -118.081,-8.075 -173.354,-24.226c-55.272,-16.151 -99.777,-37.148 -133.514,-62.989l59.22,-131.361c32.302,22.97 70.526,41.813 114.672,56.528c44.146,14.716 88.83,22.073 134.053,22.073c34.455,0 62.271,-3.409 83.446,-10.229c21.176,-6.819 36.789,-16.33 46.838,-28.533c10.05,-12.203 15.074,-26.201 15.074,-41.993c0,-20.099 -7.896,-36.07 -23.688,-47.914c-15.792,-11.844 -36.609,-21.535 -62.45,-29.072c-25.842,-7.537 -54.375,-14.715 -85.6,-21.534c-31.225,-6.82 -62.451,-15.254 -93.676,-25.304c-31.225,-10.049 -59.758,-22.97 -85.6,-38.762c-25.841,-15.792 -46.838,-36.609 -62.988,-62.45c-16.151,-25.842 -24.227,-58.861 -24.227,-99.059c0,-43.07 11.665,-82.37 34.994,-117.902c23.329,-35.532 58.502,-63.886 105.519,-85.062c47.018,-21.176 106.058,-31.763 177.122,-31.763c47.377,-0 94.035,5.563 139.975,16.689c45.941,11.126 86.498,27.815 121.671,50.068l-53.837,132.438c-35.173,-20.099 -70.346,-34.994 -105.519,-44.685c-35.173,-9.69 -69.629,-14.536 -103.366,-14.536c-33.738,0 -61.374,3.948 -82.908,11.844c-21.535,7.896 -36.968,18.125 -46.3,30.687c-9.332,12.562 -13.997,27.098 -13.997,43.608c-0,19.381 7.896,34.994 23.688,46.838c15.792,11.844 36.609,21.355 62.45,28.533c25.842,7.178 54.375,14.356 85.6,21.535c31.225,7.178 62.45,15.433 93.676,24.764c31.225,9.332 59.758,21.894 85.6,37.686c25.841,15.792 46.837,36.609 62.988,62.45c16.151,25.842 24.227,58.503 24.227,97.983c-0,42.351 -11.844,81.113 -35.532,116.287c-23.688,35.173 -59.041,63.527 -106.058,85.061c-47.017,21.535 -106.417,32.302 -178.199,32.302Z" style="fill:#231f20;fill-rule:nonzero;"/><path id="o" d="M3684.51,876.377c-59.579,0 -114.672,-9.691 -165.278,-29.072c-50.606,-19.381 -94.393,-46.658 -131.361,-81.831c-36.968,-35.173 -65.681,-76.448 -86.138,-123.824c-20.458,-47.376 -30.687,-99.059 -30.687,-155.049c-0,-55.99 10.229,-107.673 30.687,-155.049c20.457,-47.376 49.35,-88.651 86.676,-123.824c37.327,-35.173 81.114,-62.451 131.361,-81.832c50.248,-19.381 104.802,-29.071 163.663,-29.071c59.579,-0 114.313,9.69 164.202,29.071c49.888,19.381 93.316,46.659 130.284,81.832c36.968,35.173 65.86,76.268 86.677,123.285c20.817,47.017 31.225,98.88 31.225,155.588c-0,55.99 -10.408,107.852 -31.225,155.587c-20.817,47.735 -49.709,89.01 -86.677,123.824c-36.968,34.815 -80.396,61.912 -130.284,81.293c-49.889,19.381 -104.264,29.072 -163.125,29.072Zm-1.077,-148.589c33.738,0 64.784,-5.742 93.137,-17.227c28.354,-11.485 53.299,-27.995 74.833,-49.53c21.535,-21.535 38.224,-47.017 50.068,-76.448c11.844,-29.43 17.766,-62.091 17.766,-97.982c0,-35.891 -5.922,-68.552 -17.766,-97.983c-11.844,-29.43 -28.354,-54.913 -49.529,-76.447c-21.176,-21.535 -46.12,-38.045 -74.833,-49.53c-28.713,-11.485 -59.938,-17.228 -93.676,-17.228c-33.737,0 -64.783,5.743 -93.137,17.228c-28.354,11.485 -53.298,27.995 -74.833,49.53c-21.534,21.534 -38.223,47.017 -50.068,76.447c-11.844,29.431 -17.766,62.092 -17.766,97.983c0,35.173 5.922,67.654 17.766,97.444c11.845,29.789 28.354,55.451 49.53,76.986c21.176,21.535 46.12,38.045 74.833,49.53c28.713,11.485 59.938,17.227 93.675,17.227Z" style="fill:#231f20;fill-rule:nonzero;"/><path id="c" d="M4587.89,876.377c-58.144,0 -112.16,-9.511 -162.048,-28.533c-49.889,-19.023 -93.137,-46.12 -129.746,-81.293c-36.609,-35.174 -65.142,-76.448 -85.6,-123.824c-20.458,-47.376 -30.687,-99.418 -30.687,-156.126c-0,-56.708 10.229,-108.75 30.687,-156.126c20.458,-47.376 49.17,-88.651 86.138,-123.824c36.968,-35.173 80.216,-62.271 129.746,-81.293c49.53,-19.022 103.725,-28.533 162.586,-28.533c65.322,-0 124.363,11.305 177.122,33.917c52.76,22.611 97.086,55.81 132.977,99.597l-111.98,103.366c-25.842,-29.431 -54.555,-51.503 -86.139,-66.219c-31.584,-14.715 -66.039,-22.073 -103.366,-22.073c-35.173,0 -67.475,5.743 -96.906,17.228c-29.43,11.485 -54.913,27.995 -76.447,49.53c-21.535,21.534 -38.224,47.017 -50.068,76.447c-11.844,29.431 -17.766,62.092 -17.766,97.983c-0,35.891 5.922,68.552 17.766,97.982c11.844,29.431 28.533,54.913 50.068,76.448c21.534,21.535 47.017,38.045 76.447,49.53c29.431,11.485 61.733,17.227 96.906,17.227c37.327,0 71.782,-7.357 103.366,-22.073c31.584,-14.715 60.297,-37.147 86.139,-67.295l111.98,103.366c-35.891,43.787 -80.217,77.165 -132.977,100.136c-52.759,22.97 -112.159,34.455 -178.198,34.455Z" style="fill:#231f20;fill-rule:nonzero;"/><path id="k" d="M5189.78,673.196l-0,190.26l-173.354,0l0,-753.711l173.354,0l-0,351.721l333.786,-351.721l193.811,0l-312.04,335.805l330.345,417.906l-203.502,0l-241.4,-295.69l-101,105.43Z" style="fill:#231f20;"/><path id="s1" serif:id="s" d="M6044.7,876.377c-60.297,0 -118.081,-8.075 -173.353,-24.226c-55.272,-16.151 -99.777,-37.148 -133.515,-62.989l59.22,-131.361c32.302,22.97 70.526,41.813 114.672,56.528c44.146,14.716 88.83,22.073 134.053,22.073c34.455,0 62.271,-3.409 83.447,-10.229c21.175,-6.819 36.788,-16.33 46.837,-28.533c10.05,-12.203 15.075,-26.201 15.075,-41.993c-0,-20.099 -7.896,-36.07 -23.688,-47.914c-15.792,-11.844 -36.609,-21.535 -62.451,-29.072c-25.841,-7.537 -54.375,-14.715 -85.6,-21.534c-31.225,-6.82 -62.45,-15.254 -93.675,-25.304c-31.225,-10.049 -59.759,-22.97 -85.6,-38.762c-25.842,-15.792 -46.838,-36.609 -62.989,-62.45c-16.151,-25.842 -24.226,-58.861 -24.226,-99.059c-0,-43.07 11.664,-82.37 34.993,-117.902c23.329,-35.532 58.503,-63.886 105.52,-85.062c47.017,-21.176 106.058,-31.763 177.122,-31.763c47.376,-0 94.034,5.563 139.975,16.689c45.94,11.126 86.497,27.815 121.67,50.068l-53.836,132.438c-35.173,-20.099 -70.347,-34.994 -105.52,-44.685c-35.173,-9.69 -69.628,-14.536 -103.366,-14.536c-33.737,0 -61.373,3.948 -82.908,11.844c-21.535,7.896 -36.968,18.125 -46.299,30.687c-9.332,12.562 -13.998,27.098 -13.998,43.608c0,19.381 7.896,34.994 23.688,46.838c15.792,11.844 36.609,21.355 62.45,28.533c25.842,7.178 54.375,14.356 85.601,21.535c31.225,7.178 62.45,15.433 93.675,24.764c31.225,9.332 59.759,21.894 85.6,37.686c25.842,15.792 46.838,36.609 62.989,62.45c16.151,25.842 24.226,58.503 24.226,97.983c0,42.351 -11.844,81.113 -35.532,116.287c-23.688,35.173 -59.041,63.527 -106.058,85.061c-47.017,21.535 -106.417,32.302 -178.199,32.302Z" style="fill:#231f20;fill-rule:nonzero;"/></g><g id="On"><path id="o1" serif:id="o" d="M2993.88,1673.93c-59.579,0 -114.672,-9.69 -165.278,-29.071c-50.606,-19.381 -94.393,-46.659 -131.361,-81.832c-36.968,-35.173 -65.681,-76.448 -86.139,-123.824c-20.457,-47.376 -30.686,-99.059 -30.686,-155.049c-0,-55.99 10.229,-107.673 30.686,-155.049c20.458,-47.376 49.351,-88.651 86.677,-123.824c37.327,-35.173 81.114,-62.45 131.361,-81.831c50.248,-19.382 104.802,-29.072 163.663,-29.072c59.579,-0 114.313,9.69 164.202,29.072c49.888,19.381 93.316,46.658 130.284,81.831c36.968,35.173 65.86,76.268 86.677,123.286c20.817,47.017 31.225,98.879 31.225,155.587c-0,55.99 -10.408,107.853 -31.225,155.588c-20.817,47.735 -49.709,89.009 -86.677,123.824c-36.968,34.814 -80.396,61.912 -130.284,81.293c-49.889,19.381 -104.264,29.071 -163.125,29.071Zm-1.077,-148.588c33.738,-0 64.784,-5.743 93.137,-17.228c28.354,-11.485 53.299,-27.995 74.833,-49.53c21.535,-21.534 38.224,-47.017 50.068,-76.447c11.844,-29.431 17.766,-62.092 17.766,-97.983c0,-35.891 -5.922,-68.552 -17.766,-97.982c-11.844,-29.431 -28.354,-54.914 -49.529,-76.448c-21.176,-21.535 -46.12,-38.045 -74.833,-49.53c-28.713,-11.485 -59.938,-17.227 -93.676,-17.227c-33.737,-0 -64.783,5.742 -93.137,17.227c-28.354,11.485 -53.298,27.995 -74.833,49.53c-21.534,21.534 -38.224,47.017 -50.068,76.448c-11.844,29.43 -17.766,62.091 -17.766,97.982c0,35.173 5.922,67.655 17.766,97.444c11.844,29.79 28.354,55.452 49.53,76.986c21.176,21.535 46.12,38.045 74.833,49.53c28.713,11.485 59.938,17.228 93.675,17.228Z" style="fill:#231f20;fill-rule:nonzero;"/><path id="n" d="M3708.83,1203.55l-0,457.47l-172.277,-0l-0,-753.711l144.282,-0l374.702,457.263l-0,-457.263l172.277,-0l-0,753.711l-143.205,-0l-375.779,-457.47Z" style="fill:#231f20;"/></g><g id="Bots"><path id="b" d="M3155.64,2066.05c6.946,2.28 13.717,4.81 20.314,7.591c36.608,15.433 65.142,38.224 85.6,68.372c20.457,30.149 30.686,67.117 30.686,110.904c0,64.603 -25.482,115.03 -76.447,151.28c-50.966,36.25 -125.978,54.375 -225.037,54.375l-389.776,0l-0,-753.711l368.241,-0c94.753,-0 165.996,17.945 213.731,53.836c47.735,35.891 71.603,83.268 71.603,142.129c-0,39.48 -9.691,73.756 -29.072,102.828c-17.457,26.185 -40.738,46.984 -69.843,62.396Zm-381.307,-52.167l173.354,-0c42.351,-0 74.833,-7.358 97.444,-22.073c22.611,-14.716 33.917,-37.148 33.917,-67.296c-0,-29.431 -11.306,-51.504 -33.917,-66.219c-22.611,-14.715 -55.093,-22.073 -97.444,-22.073l-173.354,0l0,177.661Zm0,127.054l0,186.274l203.502,-0c45.223,-0 79.499,-7.358 102.828,-22.073c23.329,-14.715 34.994,-38.224 34.994,-70.526c-0,-31.584 -11.665,-55.093 -34.994,-70.526c-23.329,-15.433 -57.605,-23.149 -102.828,-23.149l-203.502,-0Z" style="fill:#231f20;"/><path id="o2" serif:id="o" d="M3790.76,2471.49c-59.579,-0 -114.671,-9.691 -165.278,-29.072c-50.606,-19.381 -94.393,-46.658 -131.361,-81.831c-36.967,-35.174 -65.68,-76.448 -86.138,-123.824c-20.458,-47.376 -30.687,-99.06 -30.687,-155.049c0,-55.99 10.229,-107.673 30.687,-155.05c20.458,-47.376 49.35,-88.65 86.677,-123.824c37.326,-35.173 81.113,-62.45 131.361,-81.831c50.247,-19.381 104.801,-29.072 163.663,-29.072c59.579,0 114.313,9.691 164.201,29.072c49.889,19.381 93.317,46.658 130.284,81.831c36.968,35.174 65.86,76.269 86.677,123.286c20.817,47.017 31.225,98.88 31.225,155.588c0,55.989 -10.408,107.852 -31.225,155.587c-20.817,47.735 -49.709,89.01 -86.677,123.824c-36.967,34.814 -80.395,61.912 -130.284,81.293c-49.888,19.381 -104.263,29.072 -163.125,29.072Zm-1.076,-148.589c33.737,0 64.783,-5.743 93.137,-17.228c28.354,-11.485 53.298,-27.995 74.833,-49.529c21.534,-21.535 38.224,-47.017 50.068,-76.448c11.844,-29.431 17.766,-62.091 17.766,-97.982c-0,-35.891 -5.922,-68.552 -17.766,-97.983c-11.844,-29.431 -28.354,-54.913 -49.53,-76.448c-21.176,-21.534 -46.12,-38.044 -74.833,-49.529c-28.713,-11.485 -59.938,-17.228 -93.675,-17.228c-33.738,-0 -64.784,5.743 -93.137,17.228c-28.354,11.485 -53.299,27.995 -74.833,49.529c-21.535,21.535 -38.224,47.017 -50.068,76.448c-11.844,29.431 -17.766,62.092 -17.766,97.983c-0,35.173 5.922,67.654 17.766,97.444c11.844,29.789 28.354,55.451 49.529,76.986c21.176,21.534 46.12,38.044 74.833,49.529c28.713,11.485 59.938,17.228 93.676,17.228Z" style="fill:#231f20;fill-rule:nonzero;"/><path id="t" d="M4478.8,2458.57l-0,-611.583l-241.188,0l0,-142.128l656.806,-0l-0,142.128l-241.188,0l0,611.583l-174.43,0Z" style="fill:#231f20;fill-rule:nonzero;"/><path id="s2" serif:id="s" d="M5230.35,2471.49c-60.297,-0 -118.082,-8.076 -173.354,-24.227c-55.272,-16.151 -99.777,-37.147 -133.515,-62.988l59.221,-131.361c32.302,22.97 70.525,41.813 114.671,56.528c44.146,14.715 88.831,22.073 134.053,22.073c34.456,-0 62.271,-3.41 83.447,-10.229c21.176,-6.819 36.788,-16.33 46.838,-28.533c10.049,-12.203 15.074,-26.201 15.074,-41.993c-0,-20.099 -7.896,-36.07 -23.688,-47.914c-15.792,-11.844 -36.609,-21.535 -62.451,-29.072c-25.841,-7.537 -54.374,-14.715 -85.6,-21.535c-31.225,-6.819 -62.45,-15.253 -93.675,-25.303c-31.225,-10.049 -59.759,-22.97 -85.6,-38.762c-25.842,-15.792 -46.838,-36.609 -62.989,-62.45c-16.151,-25.842 -24.226,-58.862 -24.226,-99.06c-0,-43.069 11.664,-82.369 34.993,-117.902c23.33,-35.532 58.503,-63.886 105.52,-85.061c47.017,-21.176 106.058,-31.764 177.122,-31.764c47.376,0 94.035,5.563 139.975,16.69c45.94,11.126 86.497,27.815 121.67,50.067l-53.836,132.438c-35.173,-20.099 -70.346,-34.993 -105.52,-44.684c-35.173,-9.691 -69.628,-14.536 -103.366,-14.536c-33.737,0 -61.373,3.948 -82.908,11.844c-21.534,7.896 -36.968,18.125 -46.299,30.687c-9.332,12.562 -13.998,27.098 -13.998,43.608c0,19.381 7.896,34.993 23.688,46.837c15.792,11.844 36.609,21.355 62.451,28.534c25.841,7.178 54.375,14.356 85.6,21.534c31.225,7.178 62.45,15.433 93.675,24.765c31.225,9.332 59.759,21.894 85.6,37.686c25.842,15.792 46.838,36.608 62.989,62.45c16.151,25.841 24.226,58.502 24.226,97.982c0,42.352 -11.844,81.114 -35.532,116.287c-23.688,35.173 -59.04,63.527 -106.058,85.062c-47.017,21.534 -106.416,32.302 -178.198,32.302Z" style="fill:#231f20;fill-rule:nonzero;"/></g></g></g><g id="Object"><path id="Puzzle" d="M1131.98,2406.45l-859.624,-0c-72.587,-0 -131.518,-58.932 -131.518,-131.519l-0,-2002.57c-0,-72.587 58.931,-131.518 131.518,-131.518l2005.73,-0c72.587,-0 131.519,58.931 131.519,131.518l-0,622.023c-58.862,-0 -113.416,9.69 -163.663,29.072c-50.248,19.381 -94.035,46.658 -131.361,81.831c-37.327,35.173 -66.219,76.448 -86.677,123.824c-20.458,47.376 -30.687,99.059 -30.687,155.049c-0,55.99 10.229,107.673 30.687,155.049c20.458,47.376 49.17,88.651 86.138,123.824c36.968,35.173 80.755,62.451 131.361,81.832c50.302,19.264 105.035,28.954 164.202,29.07l-0,600.998c-0,72.587 -58.932,131.519 -131.519,131.519l-321.331,-0c-0,55.99 -10.409,107.852 -31.226,155.587c-20.816,47.735 -49.709,89.01 -86.676,123.824c-36.968,34.814 -80.396,61.912 -130.285,81.293c-49.888,19.381 -104.263,29.072 -163.124,29.072c-59.579,-0 -114.672,-9.691 -165.278,-29.072c-50.607,-19.381 -94.394,-46.658 -131.361,-81.831c-36.968,-35.173 -65.681,-76.448 -86.139,-123.824c-20.458,-47.376 -30.687,-99.059 -30.687,-155.049Z" style="fill:#818080;"/><path d="M1055.41,2489.78l-783.052,-0c-118.58,-0 -214.851,-96.272 -214.851,-214.852l-0,-2002.57c-0,-118.58 96.271,-214.851 214.851,-214.851l2005.73,-0c118.58,-0 214.852,96.271 214.852,214.851l-0,705.356l-83.333,0c-48.06,0 -92.647,7.664 -133.674,23.489c-39.827,15.362 -74.615,36.851 -104.2,64.73c-28.999,27.326 -51.428,59.405 -67.322,96.211c-16.092,37.265 -23.859,77.973 -23.859,122.013c0,44.041 7.767,84.748 23.859,122.013c15.938,36.909 38.275,69.086 67.075,96.488c29.161,27.745 63.804,49.094 103.723,64.382c41.208,15.782 86.091,23.464 134.561,23.559l83.17,0.163l-0,684.168c-0,118.58 -96.272,214.852 -214.852,214.852l-244.839,-0c-6.236,36.861 -16.713,72.042 -31.332,105.565c-25.424,58.3 -60.781,108.66 -105.93,151.179c-44.641,42.04 -96.996,74.901 -157.24,98.305c-59.132,22.972 -123.534,34.727 -193.301,34.727c-70.34,0 -135.336,-11.702 -195.082,-34.583c-61.294,-23.475 -114.224,-56.679 -158.999,-99.281c-45.136,-42.944 -80.224,-93.316 -105.202,-151.16c-14.331,-33.187 -24.618,-68.097 -30.754,-104.752Zm76.572,-83.333c0,55.99 10.229,107.673 30.687,155.049c20.458,47.376 49.171,88.651 86.139,123.824c36.967,35.173 80.754,62.45 131.361,81.831c50.606,19.381 105.699,29.072 165.278,29.072c58.861,-0 113.236,-9.691 163.124,-29.072c49.889,-19.381 93.317,-46.479 130.285,-81.293c36.967,-34.814 65.86,-76.089 86.676,-123.824c20.817,-47.735 31.226,-99.597 31.226,-155.587l321.331,-0c72.587,-0 131.519,-58.932 131.519,-131.519l-0,-600.998c-59.167,-0.116 -113.9,-9.806 -164.202,-29.07c-50.606,-19.381 -94.393,-46.659 -131.361,-81.832c-36.968,-35.173 -65.68,-76.448 -86.138,-123.824c-20.458,-47.376 -30.687,-99.059 -30.687,-155.049c-0,-55.99 10.229,-107.673 30.687,-155.049c20.458,-47.376 49.35,-88.651 86.677,-123.824c37.326,-35.173 81.113,-62.45 131.361,-81.831c50.247,-19.382 104.801,-29.072 163.663,-29.072l-0,-622.023c-0,-72.587 -58.932,-131.518 -131.519,-131.518l-2005.73,-0c-72.587,-0 -131.518,58.931 -131.518,131.518l-0,2002.57c-0,72.587 58.931,131.519 131.518,131.519l859.624,-0Z" style="fill:#231f20;"/><g id="Eyes"><path id="EyeL" d="M905.637,662.84c-0,-25.23 -20.484,-45.713 -45.713,-45.713l-91.426,-0c-25.229,-0 -45.713,20.483 -45.713,45.713l0,239.263c0,25.229 20.484,45.713 45.713,45.713l91.426,-0c25.229,-0 45.713,-20.484 45.713,-45.713l-0,-239.263Z" style="fill:#15a99c;"/><path d="M983.762,662.84l-0,239.263c-0,68.348 -55.49,123.838 -123.838,123.838l-91.426,-0c-68.348,-0 -123.838,-55.49 -123.838,-123.838l0,-239.263c0,-68.348 55.49,-123.838 123.838,-123.838l91.426,-0c68.348,-0 123.838,55.49 123.838,123.838Zm-78.125,-0c-0,-25.23 -20.484,-45.713 -45.713,-45.713l-91.426,-0c-25.229,-0 -45.713,20.483 -45.713,45.713l0,239.263c0,25.229 20.484,45.713 45.713,45.713l91.426,-0c25.229,-0 45.713,-20.484 45.713,-45.713l-0,-239.263Z" style="fill:#231f20;"/><path id="EyeR" d="M1549.26,662.84c-0,-25.23 -20.484,-45.713 -45.713,-45.713l-91.426,-0c-25.229,-0 -45.713,20.483 -45.713,45.713l0,239.263c0,25.229 20.484,45.713 45.713,45.713l91.426,-0c25.229,-0 45.713,-20.484 45.713,-45.713l-0,-239.263Z" style="fill:#15a99c;"/><path d="M1627.38,662.84l-0,239.263c-0,68.348 -55.49,123.838 -123.838,123.838l-91.426,-0c-68.348,-0 -123.838,-55.49 -123.838,-123.838l0,-239.263c0,-68.348 55.49,-123.838 123.838,-123.838l91.426,-0c68.348,-0 123.838,55.49 123.838,123.838Zm-78.125,-0c-0,-25.23 -20.484,-45.713 -45.713,-45.713l-91.426,-0c-25.229,-0 -45.713,20.483 -45.713,45.713l0,239.263c0,25.229 20.484,45.713 45.713,45.713l91.426,-0c25.229,-0 45.713,-20.484 45.713,-45.713l-0,-239.263Z" style="fill:#231f20;"/><path id="ShineR" d="M1457.83,661.063c0,-8.792 -7.137,-15.929 -15.929,-15.929l-31.858,-0c-8.791,-0 -15.929,7.137 -15.929,15.929l0,83.372c0,8.792 7.138,15.929 15.929,15.929l31.858,0c8.792,0 15.929,-7.137 15.929,-15.929l0,-83.372Z" style="fill:#fff;fill-opacity:0.4;"/><path id="ShineL" d="M814.211,661.063c0,-8.792 -7.138,-15.929 -15.929,-15.929l-31.858,-0c-8.791,-0 -15.929,7.137 -15.929,15.929l0,83.372c0,8.792 7.138,15.929 15.929,15.929l31.858,0c8.791,0 15.929,-7.137 15.929,-15.929l0,-83.372Z" style="fill:#fff;fill-opacity:0.4;"/></g></g></g></svg>