<?xml version="1.0" encoding="UTF-8" standalone="no"?><!DOCTYPE svg PUBLIC "-//W3C//DTD SVG 1.1//EN" "http://www.w3.org/Graphics/SVG/1.1/DTD/svg11.dtd"><svg width="100%" height="100%" viewBox="0 0 5313 2579" version="1.1" xmlns="http://www.w3.org/2000/svg" xmlns:xlink="http://www.w3.org/1999/xlink" xml:space="preserve" xmlns:serif="http://www.serif.com/" style="fill-rule:evenodd;clip-rule:evenodd;stroke-linejoin:round;stroke-miterlimit:2;"><g id="Logo"><g id="Text"><g id="Kurven"><g><path d="M2495.84,571.373c62.677,36.553 133.177,54.83 210.736,54.83c152.465,-0 234.28,-73.976 234.28,-181.095c0,-46.181 -12.185,-82.777 -36.555,-109.789c-23.501,-27.011 -64.409,-52.28 -122.762,-75.806l-38.353,-14.813l-40.096,-15.684l-29.637,-14.813c-23.535,-13.941 -31.379,-27.012 -31.379,-44.438c-0,-27.883 31.379,-47.051 87.165,-47.051c63.631,0 115.876,17.425 157.654,51.407l-0,-133.216c-47.001,-26.98 -100.996,-40.905 -162.884,-40.905c-61.887,-0 -113.27,15.665 -155.048,46.127c-40.908,30.461 -61.797,71.365 -61.797,124.509c-0,90.619 60.056,143.771 163.674,181.239c53.171,19.169 89.781,34.853 108.086,46.181c18.305,11.327 27.894,27.011 27.894,47.052c-0,35.725 -39.226,60.122 -106.343,60.122c-81.032,0 -148.922,-24.397 -204.635,-73.192l-0,139.335Z" style="fill:#231f20;fill-rule:nonzero;"/><path d="M2994.97,314.407c-0,88.005 31.333,162.94 94.001,223.897c63.563,60.051 140.241,90.512 229.989,90.512c90.619,-0 167.297,-30.461 229.988,-90.512c62.668,-60.957 94.001,-135.892 94.001,-223.897c0,-88.006 -31.333,-162.07 -94.871,-223.024c-62.692,-60.922 -139.37,-91.383 -229.118,-91.383c-89.748,-0 -166.426,30.461 -229.989,91.383c-62.668,60.954 -94.001,135.018 -94.001,223.024Zm134.038,-0c0,-53.152 18.298,-98.462 54.894,-135.929c36.597,-37.468 81.906,-56.635 135.058,-56.635c53.152,0 98.461,19.167 135.058,56.635c36.596,37.467 54.893,82.777 54.893,135.929c-0,53.151 -18.297,99.332 -55.765,136.8c-36.596,37.467 -81.034,55.766 -134.186,55.766c-53.152,-0 -98.461,-18.299 -135.058,-54.895c-36.596,-37.467 -54.894,-82.777 -54.894,-137.671Z" style="fill:#231f20;fill-rule:nonzero;"/><path d="M4030.58,-0c-91.464,-0 -168.12,29.591 -231.677,89.642c-63.538,60.082 -94.872,134.146 -94.872,223.894c0,89.748 31.334,163.812 94.872,223.896c63.557,59.18 140.213,88.771 231.677,88.771c72.3,-0 135.018,-20.888 188.155,-62.662l-0,-140.216c-54.008,54.023 -116.726,81.034 -188.155,81.034c-54.879,0 -100.175,-18.298 -137.632,-54.023c-36.585,-36.596 -54.878,-81.906 -54.878,-136.8c-0,-54.894 18.293,-100.204 55.749,-136.8c37.457,-36.597 82.754,-54.893 136.761,-54.893c71.429,0 134.147,27.01 188.155,81.033l-0,-140.213c-53.137,-41.775 -115.855,-62.663 -188.155,-62.663Z" style="fill:#231f20;fill-rule:nonzero;"/><path d="M4461.77,616.621l-0,-276.955l224.74,276.955l163.765,-0l-253.487,-309.18l243.905,-297.859l-162.023,-0l-216.9,272.603l-0,-272.603l-134.039,-0l0,607.039l134.039,-0Z" style="fill:#231f20;fill-rule:nonzero;"/><path d="M4869.55,571.373c62.677,36.553 133.178,54.83 210.737,54.83c152.464,-0 234.28,-73.976 234.28,-181.095c-0,-46.181 -12.185,-82.777 -36.556,-109.789c-23.5,-27.011 -64.408,-52.28 -122.762,-75.806l-38.353,-14.813l-40.096,-15.684l-29.636,-14.813c-23.535,-13.941 -31.38,-27.012 -31.38,-44.438c0,-27.883 31.38,-47.051 87.166,-47.051c63.631,0 115.875,17.425 157.654,51.407l-0,-133.216c-47.001,-26.98 -100.996,-40.905 -162.884,-40.905c-61.888,-0 -113.27,15.665 -155.048,46.127c-40.908,30.461 -61.797,71.365 -61.797,124.509c-0,90.619 60.056,143.771 163.674,181.239c53.171,19.169 89.781,34.853 108.085,46.181c18.305,11.327 27.894,27.011 27.894,47.052c0,35.725 -39.225,60.122 -106.343,60.122c-81.031,0 -148.921,-24.397 -204.635,-73.192l0,139.335Z" style="fill:#231f20;fill-rule:nonzero;"/></g><g><path d="M2490.25,1132.8c0,88.005 31.334,162.94 94.001,223.898c63.564,60.051 140.242,90.511 229.99,90.511c90.619,0 167.297,-30.46 229.988,-90.511c62.668,-60.958 94.001,-135.893 94.001,-223.898c-0,-88.005 -31.333,-162.069 -94.871,-223.024c-62.693,-60.921 -139.37,-91.383 -229.118,-91.383c-89.748,0 -166.426,30.462 -229.99,91.383c-62.667,60.955 -94.001,135.019 -94.001,223.024Zm134.039,0c-0,-53.152 18.298,-98.461 54.894,-135.929c36.596,-37.468 81.906,-56.634 135.058,-56.634c53.151,-0 98.461,19.166 135.057,56.634c36.597,37.468 54.893,82.777 54.893,135.929c0,53.152 -18.296,99.333 -55.764,136.8c-36.596,37.468 -81.035,55.766 -134.186,55.766c-53.152,0 -98.462,-18.298 -135.058,-54.894c-36.596,-37.468 -54.894,-82.778 -54.894,-137.672Z" style="fill:#231f20;fill-rule:nonzero;"/><path d="M3360.35,1435.02l0,-344.021l407.669,367.54l-0,-630.558l-132.297,0l0,344.89l-407.668,-368.409l-0,630.558l132.296,0Z" style="fill:#231f20;fill-rule:nonzero;"/></g><g><path d="M2771.66,2250.8c53.163,0 96.682,-16.535 131.496,-50.475c35.686,-33.94 53.094,-77.475 53.094,-128.907c-0,-77.585 -44.39,-136.764 -121.853,-150.687c48.706,-17.404 77.427,-63.578 77.427,-121.99c0,-44.456 -16.536,-81.877 -50.48,-110.596c-33.074,-29.589 -73.981,-44.383 -122.787,-44.383l-241.261,-0l-0,607.038l274.364,0Zm-142.939,-492.164l88.915,0c37.483,0 64.505,27.027 64.505,62.772c0,37.489 -27.022,64.516 -65.377,64.516l-88.043,-0l0,-127.288Zm0,230.838l115.049,0c46.193,0 79.312,29.639 79.312,71.483c0,41.843 -33.119,74.098 -78.441,74.098l-115.92,-0l0,-145.581Z" style="fill:#231f20;fill-rule:nonzero;"/><path d="M3015.6,1948.59c-0,88.006 31.333,162.941 94.001,223.898c63.563,60.051 140.241,90.512 229.989,90.512c90.619,-0 167.297,-30.461 229.988,-90.512c62.668,-60.957 94.001,-135.892 94.001,-223.898c0,-88.005 -31.333,-162.069 -94.871,-223.024c-62.692,-60.921 -139.37,-91.382 -229.118,-91.382c-89.748,-0 -166.426,30.461 -229.989,91.382c-62.668,60.955 -94.001,135.019 -94.001,223.024Zm134.038,0c0,-53.151 18.298,-98.461 54.894,-135.929c36.597,-37.467 81.906,-56.634 135.058,-56.634c53.152,-0 98.461,19.167 135.058,56.634c36.596,37.468 54.893,82.778 54.893,135.929c-0,53.152 -18.297,99.333 -55.765,136.801c-36.596,37.467 -81.034,55.765 -134.186,55.765c-53.152,0 -98.461,-18.298 -135.058,-54.894c-36.596,-37.468 -54.894,-82.777 -54.894,-137.672Z" style="fill:#231f20;fill-rule:nonzero;"/><path d="M3986.75,2250.8l-0,-485.195l162.022,-0l-0,-121.843l-460.696,-0l-0,121.843l164.635,-0l0,485.195l134.039,0Z" style="fill:#231f20;fill-rule:nonzero;"/><path d="M4197.66,2205.55c62.677,36.553 133.178,54.829 210.737,54.829c152.464,0 234.28,-73.975 234.28,-181.094c-0,-46.181 -12.185,-82.778 -36.556,-109.789c-23.5,-27.012 -64.408,-52.28 -122.762,-75.807l-38.353,-14.812l-40.096,-15.685l-29.636,-14.812c-23.535,-13.942 -31.38,-27.012 -31.38,-44.439c0,-27.882 31.38,-47.05 87.166,-47.05c63.631,0 115.875,17.425 157.654,51.407l-0,-133.217c-47.001,-26.979 -100.996,-40.904 -162.884,-40.904c-61.888,-0 -113.27,15.665 -155.048,46.126c-40.908,30.461 -61.797,71.366 -61.797,124.51c-0,90.619 60.056,143.771 163.674,181.238c53.171,19.17 89.781,34.854 108.085,46.181c18.305,11.328 27.894,27.012 27.894,47.053c0,35.725 -39.225,60.122 -106.343,60.122c-81.031,0 -148.921,-24.397 -204.635,-73.192l0,139.335Z" style="fill:#231f20;fill-rule:nonzero;"/></g></g></g><g id="Object"><path id="Puzzle" d="M2268.77,1447.21l-0,583.045c-0,129.894 -105.458,235.352 -235.352,235.352l-301.008,-0.001c-0,88.005 -31.334,162.94 -94.001,223.897c-62.691,60.051 -139.369,90.512 -229.989,90.512c-89.747,-0 -166.425,-30.461 -229.989,-90.512c-62.667,-60.957 -94.001,-135.892 -94.001,-223.897l-849.077,0.001c-129.894,-0 -235.351,-105.458 -235.351,-235.352l0,-1794.91c0,-129.894 105.457,-235.351 235.351,-235.351l1798.07,0c129.894,0 235.352,105.457 235.352,235.351l0,583.045c-89.748,0 -166.425,30.462 -229.989,91.383c-62.667,60.955 -94.001,135.019 -94.001,223.024c-0,88.005 31.334,162.94 94.001,223.898c63.564,60.051 140.241,90.511 229.989,90.511Z" style="fill:#818080;"/><path d="M2268.77,1447.21l-0,583.045c-0,129.894 -105.458,235.352 -235.352,235.352l-301.008,-0.001c-0,88.005 -31.334,162.94 -94.001,223.897c-62.691,60.051 -139.369,90.512 -229.989,90.512c-89.747,-0 -166.425,-30.461 -229.989,-90.512c-62.667,-60.957 -94.001,-135.892 -94.001,-223.897l-849.077,0.001c-129.894,-0 -235.351,-105.458 -235.351,-235.352l0,-1794.91c0,-129.894 105.457,-235.351 235.351,-235.351l1798.07,0c129.894,0 235.352,105.457 235.352,235.351l0,583.045c-89.748,0 -166.425,30.462 -229.989,91.383c-62.667,60.955 -94.001,135.019 -94.001,223.024c-0,88.005 31.334,162.94 94.001,223.898c63.564,60.051 140.241,90.511 229.989,90.511Zm-65.104,60.338c-79.658,-12.029 -149.511,-46.761 -209.939,-103.85l-0.34,-0.331c-75.741,-73.674 -113.711,-164.201 -113.711,-270.566c-0,-106.427 37.927,-195.979 113.884,-269.86l0.173,-0.166c60.179,-57.678 130.143,-92.641 209.933,-104.713l-0,-522.713c-0,-93.962 -76.286,-170.247 -170.248,-170.247l-1798.07,0c-93.962,0 -170.247,76.285 -170.247,170.247l0,1794.91c0,93.962 76.285,170.248 170.247,170.248l914.181,-0.001l0,65.104c0,69.485 24.584,128.715 74.056,176.996c51.102,48.08 112.765,72.309 184.83,72.309c72.739,-0 134.425,-24.105 184.902,-72.376c49.388,-48.186 73.984,-107.428 73.984,-176.929l-0,-65.104l366.112,0.001c93.962,-0 170.248,-76.286 170.248,-170.248l-0,-522.707Z" style="fill:#231f20;"/><path id="EyeR" d="M1683.6,351.943c0,-31.4 -25.493,-56.893 -56.893,-56.893l-1263.04,-0c-31.401,-0 -56.894,25.493 -56.894,56.893l0,579.373c0,31.4 25.493,56.893 56.894,56.893l1263.04,-0c31.4,-0 56.893,-25.493 56.893,-56.893l0,-579.373Z" style="fill:#90b7b7;"/><path d="M1709.64,351.943l-0,579.373c-0,45.773 -37.162,82.935 -82.935,82.935l-1263.04,-0c-45.773,-0 -82.935,-37.162 -82.935,-82.935l-0,-579.373c-0,-45.773 37.162,-82.935 82.935,-82.935l1263.04,0c45.773,0 82.935,37.162 82.935,82.935Zm-26.042,0c0,-31.4 -25.493,-56.893 -56.893,-56.893l-1263.04,-0c-31.401,-0 -56.894,25.493 -56.894,56.893l0,579.373c0,31.4 25.493,56.893 56.894,56.893l1263.04,-0c31.4,-0 56.893,-25.493 56.893,-56.893l0,-579.373Z" style="fill:#231f20;"/><g id="Eyes"><path id="EyeL" d="M764.795,521.998c-0,-25.23 -20.483,-45.713 -45.713,-45.713l-91.426,-0c-25.229,-0 -45.713,20.483 -45.713,45.713l0,239.263c0,25.229 20.484,45.713 45.713,45.713l91.426,-0c25.23,-0 45.713,-20.484 45.713,-45.713l-0,-239.263Z" style="fill:#15a99c;"/><path d="M790.837,521.998l-0,239.263c-0,39.602 -32.153,71.754 -71.755,71.754l-91.426,0c-39.602,0 -71.754,-32.152 -71.754,-71.754l-0,-239.263c-0,-39.603 32.152,-71.755 71.754,-71.755l91.426,0c39.602,0 71.755,32.152 71.755,71.755Zm-26.042,-0c-0,-25.23 -20.483,-45.713 -45.713,-45.713l-91.426,-0c-25.229,-0 -45.713,20.483 -45.713,45.713l0,239.263c0,25.229 20.484,45.713 45.713,45.713l91.426,-0c25.23,-0 45.713,-20.484 45.713,-45.713l-0,-239.263Z" style="fill:#231f20;"/><path id="EyeR1" serif:id="EyeR" d="M1408.42,521.998c-0,-25.23 -20.483,-45.713 -45.713,-45.713l-91.426,-0c-25.229,-0 -45.713,20.483 -45.713,45.713l0,239.263c0,25.229 20.484,45.713 45.713,45.713l91.426,-0c25.23,-0 45.713,-20.484 45.713,-45.713l-0,-239.263Z" style="fill:#15a99c;"/><path d="M1434.46,521.998l-0,239.263c-0,39.602 -32.153,71.754 -71.755,71.754l-91.426,0c-39.602,0 -71.754,-32.152 -71.754,-71.754l-0,-239.263c-0,-39.603 32.152,-71.755 71.754,-71.755l91.426,0c39.602,0 71.755,32.152 71.755,71.755Zm-26.042,-0c-0,-25.23 -20.483,-45.713 -45.713,-45.713l-91.426,-0c-25.229,-0 -45.713,20.483 -45.713,45.713l0,239.263c0,25.229 20.484,45.713 45.713,45.713l91.426,-0c25.23,-0 45.713,-20.484 45.713,-45.713l-0,-239.263Z" style="fill:#231f20;"/><path id="ShineR" d="M1316.99,520.221c0,-8.792 -7.137,-15.929 -15.929,-15.929l-31.858,-0c-8.791,-0 -15.929,7.137 -15.929,15.929l0,83.372c0,8.792 7.138,15.929 15.929,15.929l31.858,0c8.792,0 15.929,-7.137 15.929,-15.929l0,-83.372Z" style="fill:#fff;fill-opacity:0.4;"/><path id="ShineL" d="M673.369,520.221c0,-8.792 -7.137,-15.929 -15.929,-15.929l-31.858,-0c-8.791,-0 -15.929,7.137 -15.929,15.929l0,83.372c0,8.792 7.138,15.929 15.929,15.929l31.858,0c8.792,0 15.929,-7.137 15.929,-15.929l0,-83.372Z" style="fill:#fff;fill-opacity:0.4;"/></g></g></g></svg>